<svg xmlns="http://www.w3.org/2000/svg" width="375" viewBox="0 0 375 375" height="375" version="1.0"><defs><clipPath id="a"><path d="M 0 74 L 374 74 L 374 246.9375 L 0 246.9375 Z M 0 74"/></clipPath></defs><path fill="#FFF" d="M-37.5 -37.5H412.5V412.5H-37.5z"/><path fill="#FFF" d="M-37.5 -37.5H412.5V412.5H-37.5z"/><path fill="#FFF" d="M-37.5 -37.5H412.5V412.5H-37.5z"/><g clip-path="url(#a)"><path fill="#818572" d="M 215.023438 78.988281 C 214.507812 80.332031 215.28125 81.359375 214.382812 82.632812 C 204.476562 88.648438 195.210938 97.476562 186.078125 104.578125 C 186.777344 105.539062 187.613281 104.195312 188.378906 104.324219 C 191.320312 103.683594 193.8125 104.003906 196.296875 102.402344 C 199.945312 104.324219 203.011719 100.808594 206.144531 99.398438 C 217.128906 96.386719 228.121094 91.785156 239.308594 90.25 C 242.695312 88.648438 246.71875 88.140625 250.171875 87.5 C 256.753906 86.410156 262.882812 84.488281 269.34375 83.402344 C 287.808594 82.1875 308.894531 90.636719 326.851562 94.53125 C 331.265625 94.980469 335.03125 97.097656 339.636719 96.835938 C 342.578125 98.503906 345.957031 98.882812 349.03125 99.84375 C 354.203125 100.808594 358.164062 103.75 362.449219 106.878906 C 362.894531 106.433594 363.535156 106.878906 363.914062 107.140625 C 367.046875 111.230469 370.628906 114.941406 372.035156 119.933594 C 371.648438 121.34375 372.675781 122.167969 372.929688 123.324219 C 374.976562 131.890625 374.074219 141.109375 370.308594 148.71875 C 368.457031 151.464844 366.410156 154.15625 364.816406 156.972656 C 348.070312 166.949219 330.753906 176.03125 313.6875 184.667969 C 322.507812 193.5 331.710938 199.832031 340.71875 208.527344 C 341.492188 208.980469 342.578125 208.980469 342.445312 210.195312 C 342.636719 211.089844 341.996094 211.984375 341.425781 212.179688 L 340.976562 212.179688 C 335.738281 219.210938 328.964844 226.574219 321.167969 229.828125 C 320.207031 229.964844 319.757812 229.828125 319.371094 229.003906 L 319.632812 228.167969 C 310.6875 218.511719 300.015625 207.632812 292.15625 196.820312 C 283.65625 198.617188 275.796875 202.386719 267.675781 205.144531 C 255.597656 209.933594 243.082031 213.519531 230.808594 217.9375 C 225.054688 219.980469 218.476562 221.386719 212.917969 223.882812 C 205.25 226.125 197.449219 228.109375 189.910156 230.46875 C 159.816406 233.160156 146.394531 246.339844 114.632812 238.851562 C 108.558594 238.597656 102.621094 236.804688 96.488281 236.230469 C 90.035156 234.375 83 234.054688 76.421875 232.453125 C 55.84375 227.914062 36.226562 221.066406 17.886719 211.089844 C 16.859375 214.160156 15.714844 217.035156 14.046875 219.851562 C 15.453125 221.515625 17.753906 221.835938 19.546875 222.863281 C 20.632812 223.882812 22.867188 224.582031 21.972656 226.507812 C 19.742188 228.875 16.542969 228.808594 13.40625 229.003906 C 8.75 228.808594 4.277344 226.125 -0.265625 225.613281 C -5.308594 226.828125 -11.128906 226.507812 -15.921875 228.363281 C -17.640625 228.554688 -19.046875 229.382812 -20.648438 229.703125 C -19.046875 230.984375 -16.816406 230.46875 -14.894531 230.917969 C -6.269531 232.453125 3.957031 232.265625 12.386719 234.316406 C 12.835938 235.269531 13.792969 234.949219 14.496094 235.210938 C 17.308594 236.355469 21.082031 238.660156 21.652344 242.050781 C 19.800781 246.847656 13.40625 246.148438 9.195312 246.722656 C 5.421875 246.273438 2.675781 246.722656 -1.476562 246.273438 L -1.921875 246.722656 C -11.957031 246.722656 -21.792969 246.847656 -31.765625 245.828125 C -34.582031 245.507812 -37.261719 242.816406 -37.96875 240.066406 C -36.628906 236.355469 -33.175781 233.414062 -29.789062 231.363281 C -31.195312 229.703125 -33.367188 229.574219 -34.320312 227.273438 C -34.640625 225.351562 -33.875 223.628906 -32.339844 222.601562 C -29.980469 219.40625 -25.828125 220.425781 -22.308594 219.660156 C -12.46875 220.8125 -1.921875 225.804688 7.664062 220.425781 C 5.808594 218.0625 1.78125 217.230469 -0.265625 214.734375 C -0.265625 212.429688 2.101562 211.984375 3.570312 211.089844 C 6.769531 210.324219 9.703125 209.167969 12.960938 208.71875 C 12.960938 207.828125 14.113281 207.058594 13.40625 205.972656 L 12.066406 205.523438 C 4.847656 196.636719 -0.265625 183.453125 5.996094 172.449219 C 7.59375 169.960938 9.894531 168.484375 11.496094 166.375 C 11.496094 164.453125 10.15625 161.898438 8.554688 160.808594 C 7.722656 159.976562 8.554688 159.46875 8.75 158.695312 C 11.109375 158.121094 13.15625 156.527344 15.582031 155.886719 C 17.054688 157.351562 18.335938 159.847656 20.246094 161.257812 C 28.171875 158.121094 38.652344 159.847656 46.453125 155.757812 C 53.992188 153.070312 63.578125 153.902344 69.902344 147.375 C 83.390625 139.566406 97.632812 132.660156 112.90625 128.628906 C 116.550781 128.628906 123.199219 125.5 123.578125 124.539062 C 138.34375 118.398438 145.816406 117.632812 161.15625 113.28125 L 162.242188 112.640625 L 166.335938 111.550781 C 167.546875 105.984375 169.59375 99.59375 175.40625 97.097656 C 177.386719 96.582031 179.433594 97.097656 181.21875 97.542969 C 188.953125 90.1875 197.644531 84.554688 204.796875 76.242188 C 207.097656 74.636719 209.976562 73.746094 212.535156 75.347656 C 213.9375 75.851562 214.1875 77.707031 215.023438 78.988281 Z M 12.386719 211.089844 C 8.75 211.664062 5.167969 212.179688 2.164062 214.035156 C 4.082031 216.460938 7.148438 216.78125 9.640625 219.019531 C 11.496094 216.78125 11.941406 213.964844 12.386719 211.089844 Z M 19.546875 225.804688 C 18.074219 223.628906 14.753906 223.117188 12.066406 222.222656 C 10.15625 223.882812 7.59375 224.261719 5.101562 224.972656 C 5.363281 225.351562 5.996094 225.039062 6.449219 225.164062 C 9.960938 227.402344 15.714844 227.972656 19.546875 225.804688 Z M -10.296875 233.675781 C -14.769531 232.519531 -19.6875 232.714844 -24.289062 231.109375 C -27.421875 232.585938 -30.679688 234.761719 -33.234375 237.511719 C -33.046875 239.300781 -36.367188 238.40625 -35.09375 240.707031 C -31.835938 245.699219 -24.929688 244.546875 -19.117188 244.992188 C -7.871094 244.417969 4.847656 246.402344 16.027344 244.164062 C 17.054688 243.71875 18.140625 242.308594 19.355469 242.816406 C 19.546875 242.117188 19.035156 241.601562 18.90625 240.960938 C 11.941406 232.964844 -0.515625 234.820312 -10.296875 233.675781 Z M -9.851562 224.078125 C -15.601562 222.863281 -21.609375 220.238281 -27.933594 222.222656 C -29.535156 223.308594 -32.535156 224.011719 -32.214844 226.632812 C -31.128906 228.167969 -29.148438 229.253906 -27.292969 229.703125 C -21.734375 227.078125 -15.410156 226.058594 -9.851562 224.078125"/></g><path fill="#DFA280" d="M 212.535156 78.988281 C 213.042969 80.144531 211.570312 80.59375 211.441406 81.292969 C 210.296875 81.738281 208.695312 82.445312 207.550781 81.546875 C 206.785156 80.777344 205.628906 79.699219 206.523438 78.738281 C 206.648438 78.15625 207.289062 76.941406 208.25 76.8125 C 209.78125 76.6875 212.148438 76.8125 212.535156 78.988281"/><path fill="#F1BC86" d="M 204.351562 81.738281 C 205.699219 83.082031 207.230469 83.855469 208.890625 84.300781 C 200.449219 89.609375 192.464844 97.28125 184.410156 103.234375 C 182.878906 103.9375 181.792969 105.539062 180.578125 106.6875 C 178.988281 107.394531 177.832031 109.695312 176.046875 108.355469 C 175.339844 108.226562 175.019531 107.199219 175.40625 106.6875 C 176.300781 105.34375 177 103.683594 178.210938 102.847656 C 185.886719 95.5625 195.023438 87.5 203.136719 80.203125 C 203.902344 80.011719 204.097656 81.164062 204.351562 81.738281"/><path fill="#87B2A7" d="M 278.289062 85.515625 C 276.691406 86.859375 274.324219 87.113281 272.539062 88.78125 C 267.230469 89.546875 261.613281 87.753906 257.265625 90.890625 C 256.050781 91.53125 254.578125 91.335938 253.367188 91.910156 C 252.28125 92.9375 251.132812 91.851562 249.980469 92.8125 C 241.355469 94.085938 234.195312 98.4375 225.695312 99.84375 C 224.230469 98.757812 222.183594 97.921875 220.582031 98.632812 C 218.28125 99.136719 217.390625 101.507812 216.371094 103.234375 C 212.789062 103.042969 210.230469 105.152344 206.976562 105.605469 C 205.378906 106.625 204.289062 103.9375 202.496094 104.128906 C 207.035156 100.097656 213.9375 99.84375 219.308594 96.835938 C 225.570312 95.433594 231.320312 92.996094 237.832031 92.230469 C 243.714844 90.441406 248.894531 89.355469 255.285156 89.035156 C 262.117188 86.539062 270.429688 84.808594 278.289062 85.515625"/><path fill="#8CBF90" d="M 289.59375 87.5 C 290.363281 88.140625 291.449219 88.011719 292.410156 88.324219 C 290.75 89.160156 289.664062 90.761719 288.324219 91.910156 C 284.230469 90.695312 280.015625 90.1875 275.730469 89.160156 C 278.671875 87.753906 282.636719 86.605469 285.578125 87.691406 C 286.917969 86.984375 288.449219 87.246094 289.59375 87.5"/><path fill="#A8BDD4" d="M 329.664062 96.835938 C 323.019531 100.039062 319.886719 99.523438 314.964844 105.605469 C 310.492188 106.304688 306.273438 101.953125 301.546875 101.128906 C 296.753906 100.292969 292.667969 97.601562 287.429688 97.738281 C 286.210938 92.8125 291.835938 89.546875 296.5625 88.96875 C 297.269531 88.90625 297.269531 89.480469 297.910156 89.480469 C 303.789062 89.546875 308.320312 92.550781 309.472656 92.550781 C 316.179688 93.960938 322.960938 95.492188 329.664062 96.835938"/><path fill="#97BD9C" d="M 269.597656 90.890625 C 268.703125 92.492188 266.65625 94.792969 264.738281 94.53125 C 263.71875 97.027344 260.527344 98.882812 260.84375 101.953125 C 260.390625 102.082031 259.691406 101.894531 259.757812 101.378906 C 258.351562 100.679688 256.878906 100.039062 255.152344 100.292969 C 254.519531 100.933594 253.6875 101.441406 254.066406 102.402344 C 255.152344 103.429688 255.734375 103.875 256.820312 105.023438 C 256.179688 106.304688 256.5 108.289062 254.898438 108.996094 C 250.425781 110.851562 244.421875 108.480469 241.285156 113.53125 L 238.925781 114.941406 C 236.046875 113.339844 235.347656 109.890625 232.789062 107.90625 C 231 105.984375 229.65625 103.683594 227.613281 101.953125 L 227.613281 101.507812 C 232.660156 99.90625 237.707031 98.058594 242.695312 96.195312 C 246.914062 95.242188 251.257812 94.152344 255.472656 94.347656 C 259.820312 91.589844 264.097656 90.761719 269.597656 90.890625"/><path fill="#A1D59E" d="M 286.402344 94.085938 C 286.082031 96.195312 282.445312 98.4375 285.316406 100.292969 C 291.894531 99.203125 297.007812 102.722656 302.828125 103.9375 C 306.980469 105.34375 310.6875 107.773438 314.964844 108.996094 C 318.03125 106.238281 320.71875 100.292969 326.21875 102.59375 C 330.304688 102.722656 334.011719 103.75 337.332031 105.792969 C 331.460938 106.753906 328.003906 112.125 323.660156 115.386719 C 323.851562 118.523438 319.828125 117.496094 318.160156 117.117188 C 306.089844 114.941406 294.902344 110.53125 283.015625 107.773438 C 280.84375 106.6875 278.863281 105.539062 276.625 104.769531 C 272.789062 104.578125 268.445312 104.003906 266.597656 100.292969 C 266.597656 96.136719 269.851562 93.445312 272.984375 90.890625 C 277.777344 91.144531 282.445312 91.785156 286.402344 94.085938"/><path fill="#8CBF90" d="M 354.203125 103.9375 C 350.117188 104.644531 345.0625 106.050781 337.972656 104.644531 C 335.933594 104.257812 330.878906 101.128906 327.113281 100.292969 C 330.304688 98.691406 335.03125 97.988281 338.359375 99.203125 C 343.917969 99.523438 349.214844 101.699219 354.203125 103.9375"/><path fill="#CBCEE3" d="M 178.597656 99.652344 C 176.425781 102.148438 171.441406 104.578125 173.292969 108.800781 C 174.378906 110.714844 176.492188 110.851562 178.210938 111.550781 C 181.414062 110.976562 181.027344 108.035156 183.78125 106.6875 C 184.605469 107.90625 184.867188 109.25 184.410156 110.53125 C 180.199219 113.472656 174.699219 115.777344 169.460938 113.53125 C 167.867188 109.503906 170.226562 104.578125 172.847656 101.378906 C 174.253906 99.523438 176.871094 98.632812 178.597656 99.652344"/><path fill="#7E9E96" d="M 263.84375 112.445312 C 263.398438 112.832031 262.691406 113.472656 261.863281 113.53125 C 261.417969 109.824219 259.691406 106.238281 258.480469 103.234375 C 260.265625 102.980469 260.527344 106.945312 262.3125 104.769531 C 263.589844 103.042969 262.3125 101.1875 264.039062 99.398438 C 264.871094 103.9375 263.273438 108.09375 263.84375 112.445312"/><path fill="#EFBE98" d="M 255.984375 136.496094 C 255.539062 137.847656 253.367188 139.828125 252.53125 140.78125 C 251.132812 140.527344 250.359375 138.226562 248.765625 137.332031 C 238.609375 126.96875 229.34375 117.691406 219.5625 106.050781 C 218.535156 104.644531 219.308594 103.554688 219.75 102.148438 C 221.15625 100.292969 223.203125 101.253906 224.609375 102.148438 C 234.902344 113.660156 245.1875 125.558594 255.984375 136.496094"/><path fill="#7FB0AD" d="M 277.652344 107.773438 C 278.289062 108.996094 275.796875 109.441406 276.4375 110.976562 C 273.238281 110.976562 269.40625 110.851562 266.40625 111.746094 C 265.699219 109.890625 265.949219 106.238281 266.144531 103.683594 C 269.53125 106.304688 273.878906 106.433594 277.652344 107.773438"/><path fill="#A8BDD4" d="M 202.691406 106.238281 C 205.058594 106.238281 203.457031 109.949219 206.328125 108.546875 C 208.125 110.714844 209.722656 112.832031 210.742188 115.195312 C 202.050781 117.242188 192.910156 119.546875 184.160156 122.234375 C 178.347656 123.898438 172.652344 125.625 167.160156 127.988281 C 166.015625 127.222656 165.054688 125.945312 164.222656 124.792969 C 160.960938 122.167969 157.769531 119.488281 154.1875 117.496094 C 157.128906 116.097656 161.40625 114.746094 165.308594 114.175781 C 170.742188 117.632812 177.898438 116.992188 183.519531 113.726562 C 184.226562 111.484375 190.804688 111.746094 187.164062 108.355469 L 187.351562 106.878906 C 190.804688 106.050781 194.511719 105.34375 197.964844 105.152344 C 199.496094 105.925781 200.964844 105.539062 202.691406 106.238281"/><path fill="#97BD9C" d="M 230.167969 120.121094 C 221.667969 124.285156 212.597656 127.988281 203.582031 131.378906 C 196.113281 133.496094 189.078125 136.5625 181.664062 138.671875 C 169.652344 142.324219 157.828125 146.160156 144.855469 147.375 C 142.75 147.628906 140.894531 147.183594 139.304688 146.160156 C 138.210938 141.234375 134.503906 137.078125 131.183594 133.496094 C 138.851562 127.988281 148.054688 124.539062 158.476562 124.539062 C 159.175781 125.5 160.128906 124.539062 161.027344 124.792969 L 165.113281 129.269531 C 164.859375 129.464844 164.859375 129.71875 164.859375 129.910156 C 166.015625 131.378906 167.355469 129.910156 168.632812 129.71875 C 174.195312 127.035156 179.753906 125.625 185.632812 123.511719 C 194.453125 121.273438 203.011719 118.523438 212.277344 117.371094 C 212.082031 116.28125 212.789062 117.371094 213.167969 116.730469 C 212.976562 113.085938 209.976562 110.589844 207.996094 107.773438 C 210.421875 105.984375 213.429688 105.925781 216.371094 105.34375 C 219.75 110.976562 226.402344 114.6875 230.167969 120.121094"/><path fill="#A1D59E" d="M 361.808594 109.890625 C 362.253906 116.730469 358.296875 123.0625 354.777344 128.628906 C 347.816406 137.457031 338.359375 145.007812 328.644531 149.359375 C 327.9375 148.523438 327.367188 147.054688 325.765625 147.375 C 323.980469 148.464844 322 148.785156 320.078125 149.484375 C 317.585938 151.019531 321.613281 153.710938 318.160156 154.03125 C 317.90625 153.070312 317.011719 152.175781 317.265625 151.214844 C 312.988281 143.664062 305.449219 137.457031 296.820312 136.117188 L 296.242188 136.117188 C 304.234375 133.425781 312.792969 131.066406 320.914062 129.910156 C 322.699219 128.183594 325.445312 129.015625 327.296875 127.542969 C 328.898438 126.265625 333.945312 128.824219 333.050781 124.539062 C 335.546875 121.34375 339.445312 119.867188 342.636719 117.496094 C 343.085938 116.796875 341.996094 115.777344 341.171875 115.835938 C 337.144531 115.328125 333.757812 117.371094 330.304688 118.847656 C 329.21875 115.386719 332.351562 112.191406 335.03125 110.082031 C 338.417969 105.664062 351.835938 105.152344 355.609375 107.328125 C 357.714844 108.226562 360.148438 108.035156 361.808594 109.890625"/><path fill="#7FB0AD" d="M 259.371094 114.941406 C 256.820312 116.222656 254.066406 116.097656 251.066406 116.730469 C 248.058594 117.371094 245.378906 118.847656 242.375 119.488281 L 240.199219 116.921875 C 243.332031 113.601562 248.574219 111.230469 253.367188 112 L 258.09375 108.546875 C 258.859375 110.394531 260.207031 112.832031 259.371094 114.941406"/><path fill="#7FB0AD" d="M 294.523438 112.445312 C 302.253906 114.6875 310.941406 117.882812 319.371094 119.039062 L 321.554688 120.121094 C 319.121094 121.976562 321.359375 126.773438 317.972656 127.414062 C 316.625 124.792969 313.820312 122.617188 311.132812 121.59375 C 305.894531 118.265625 299.761719 116.222656 293.496094 114.941406 C 288.703125 113.726562 283.976562 112.445312 279.183594 111.105469 C 279.183594 110.714844 279.882812 109.628906 280.269531 108.800781 C 284.9375 109.375 289.46875 111.871094 294.523438 112.445312"/><path fill="#FEEB8E" d="M 281.484375 113.726562 C 282.054688 113.601562 282.316406 114.875 282.824219 114.175781 L 282.570312 113.921875 C 284.035156 114.242188 285.636719 115.066406 287.109375 114.941406 C 291.320312 116.671875 295.863281 117.691406 300.207031 119.226562 C 301.546875 121.019531 305.253906 121.34375 304.101562 124.34375 C 296.820312 133.746094 263.332031 118.203125 260.011719 117.117188 C 262.117188 116.28125 264.039062 114.746094 266.40625 114.621094 C 270.683594 112.386719 277.078125 113.339844 281.484375 113.726562"/><path fill="#FEEB8E" d="M 364.554688 113.53125 C 365.195312 120.574219 359.761719 125.6875 356.949219 131.640625 C 349.921875 139.1875 341.746094 145.582031 333.050781 150.378906 C 331.898438 150.960938 330.753906 151.660156 329.414062 151.914062 C 338.039062 146.609375 347.363281 140.914062 353.949219 132.464844 C 357.460938 129.015625 359.570312 124.539062 361.363281 120.121094 C 362.507812 118.332031 362.644531 116.097656 363.789062 114.300781 C 363.59375 114.175781 363.789062 112.125 364.554688 113.53125"/><path fill="#7E9E96" d="M 328.964844 121.59375 C 331.710938 121.273438 334.011719 118.777344 336.882812 118.136719 L 337.777344 118.136719 C 335.351562 119.992188 332.089844 121.273438 330.753906 124.34375 C 328.003906 125.179688 325.511719 126.328125 322.574219 126.714844 C 322.824219 121.722656 324.8125 117.117188 328.644531 113.921875 C 327.9375 116.347656 326.660156 119.488281 328.964844 121.59375"/><path fill="#8CBF90" d="M 366.601562 143.152344 C 359.828125 148.203125 327.433594 169.320312 320.71875 169.058594 C 321.679688 165.929688 318.800781 160.9375 318.800781 158.382812 C 320.148438 157.03125 322.574219 158.121094 323.464844 159.082031 C 325.445312 159.46875 327.746094 159.527344 329.21875 158.3125 C 330.753906 157.226562 329.597656 155.625 329.664062 154.222656 C 340.589844 150.320312 348.136719 142.382812 356.949219 134.582031 C 360.847656 128.375 365.960938 122.167969 367.117188 114.621094 C 375.226562 124.023438 373.820312 134.960938 366.601562 143.152344"/><path fill="#FEEB8E" d="M 282.125 126.074219 C 281.871094 128.441406 285.316406 129.074219 284.035156 131.640625 C 282.316406 135.921875 277.652344 136.625 273.878906 138.226562 C 272.023438 137.527344 270.429688 139.632812 268.25 138.226562 C 265.191406 136.5625 261.613281 134.066406 257.90625 135.671875 C 253.433594 132.914062 250.234375 128.570312 246.332031 124.34375 L 244.03125 121.59375 C 248.125 119.992188 252.726562 117.496094 257.265625 118.847656 C 263.71875 120.3125 270.113281 121.976562 276.175781 124.539062 C 278.417969 124.664062 280.078125 125.820312 282.125 126.074219"/><path fill="#87B2A7" d="M 157.640625 122.234375 C 154.253906 122.296875 150.101562 123.195312 147.027344 124.21875 C 143.261719 124.984375 140.257812 126.328125 136.683594 127.542969 C 134.503906 129.464844 131.628906 130.164062 129.265625 131.832031 C 126.390625 130.484375 123.644531 128.570312 120.703125 127.734375 C 130.863281 123.769531 141.214844 119.039062 152.65625 119.488281 L 157.640625 122.234375"/><path fill="#FAB63D" d="M 315.414062 127.988281 L 301.546875 131.832031 C 300.140625 131.640625 299.179688 130.609375 297.910156 129.910156 C 301.035156 129.589844 304.421875 127.988281 306.273438 124.984375 C 306.40625 123.832031 306.71875 122.167969 306.019531 121.148438 C 309.085938 123.511719 313.628906 124.21875 315.414062 127.988281"/><path fill="#7FB0AD" d="M 234.195312 124.21875 C 231.894531 127.09375 226.402344 129.074219 229.148438 133.816406 L 231.894531 139.761719 C 230.292969 141.871094 226.90625 142.382812 224.414062 143.730469 C 221.863281 144.367188 219.308594 145.132812 216.941406 146.289062 C 204.929688 150.253906 193.171875 154.855469 181.21875 158.695312 C 167.605469 161.257812 154.703125 166.695312 140.195312 167.589844 C 139.75 166.949219 139.558594 166.117188 140.195312 165.347656 C 141.789062 160.421875 141.789062 154.410156 140.195312 149.484375 C 158.535156 149.359375 175.28125 142.257812 192.019531 137.585938 C 202.5625 133.6875 213.363281 130.164062 223.523438 125.625 C 225.375 124.664062 227.808594 124.023438 229.722656 122.875 C 230.808594 122.742188 232.089844 122.234375 232.914062 122.421875 L 234.195312 124.21875"/><path fill="#FEEB8E" d="M 245.3125 136.691406 C 243.847656 136.5625 242.441406 136.371094 241.480469 135.222656 C 237.902344 134.261719 234.132812 133.425781 231.449219 130.746094 C 231 127.863281 234.386719 127.863281 235.726562 126.074219 C 239.054688 129.144531 242.441406 133.242188 245.3125 136.691406"/><path fill="#FAB63D" d="M 294.902344 131.191406 C 295.863281 131.320312 296.949219 132.214844 297.910156 132.726562 C 294.835938 134.261719 290.816406 134.777344 287.683594 136.3125 C 281.871094 138.671875 275.671875 140.023438 270.238281 143.40625 L 269.34375 140.78125 C 273.429688 140.46875 277.078125 139.1875 280.714844 137.777344 C 282.890625 135.992188 286.527344 133.941406 286.65625 130.609375 C 286.976562 129.335938 286.082031 128.375 285.761719 127.542969 C 288.964844 129.144531 291.960938 129.074219 294.902344 131.191406"/><path fill="#87B2A7" d="M 122.878906 131.378906 C 124.089844 131.066406 124.664062 132.019531 125.429688 132.464844 C 124.925781 133.105469 123.769531 133.105469 122.878906 133.367188 C 115.207031 136.117188 107.605469 138.738281 100.320312 142.511719 C 97.507812 143.277344 94.886719 145.074219 92.269531 146.289062 C 88.628906 148.464844 84.980469 150.574219 81.34375 152.75 C 80.769531 153.710938 79.546875 154.03125 78.597656 154.410156 C 76.355469 156.265625 74.25 158.953125 71.757812 159.976562 C 69.457031 157.351562 66.769531 155.117188 63.511719 153.769531 C 66.070312 151.914062 69.070312 150.058594 71.757812 147.824219 C 80.253906 142.832031 88.949219 138.867188 98.019531 134.835938 C 103.261719 132.980469 108.5 130.871094 114.183594 129.910156 C 116.804688 130.425781 120.445312 129.71875 122.878906 131.378906"/><path fill="#818572" d="M 325 132.726562 C 326.027344 133.496094 326.597656 135.222656 326.472656 136.5625 C 327.617188 138.160156 329.792969 138.867188 329.664062 140.976562 C 328.964844 143.40625 327.171875 144.6875 325.191406 145.902344 C 320.660156 146.863281 315.925781 145.714844 312.667969 142.324219 C 311.96875 140.722656 311.199219 139.121094 311.582031 137.136719 C 312.921875 135.28125 315.414062 134.960938 316.441406 132.464844 C 319.058594 131.890625 322.699219 130.230469 325 132.726562"/><path fill="#FEEB8E" d="M 323.660156 134.386719 C 325 135.535156 323.980469 136.5625 323.660156 137.777344 C 322.125 139.1875 319.3125 138.738281 317.527344 138.226562 C 316.753906 137.527344 316.375 136.371094 316.886719 135.476562 C 318.800781 133.496094 321.417969 132.785156 323.660156 134.386719"/><path fill="#FAB63D" d="M 247.234375 139.507812 C 247.875 139.886719 248.195312 141.109375 249.085938 140.78125 C 249.914062 141.871094 250.941406 142.769531 250.871094 144.179688 C 250.425781 145.519531 250.171875 147.757812 248.058594 146.609375 C 241.09375 145.328125 234.261719 141.363281 232.089844 134.136719 C 236.882812 136.5625 242.121094 138.03125 247.234375 139.507812"/><path fill="#97BD9C" d="M 128.632812 134.835938 C 133.105469 137.90625 135.402344 141.9375 136.996094 146.609375 C 136.171875 146.863281 136.421875 147.824219 136.101562 148.464844 C 126.710938 160.617188 112.847656 167.910156 98.789062 172.710938 C 91.878906 174.496094 85.046875 176.546875 77.957031 174.246094 C 77.316406 170.144531 75.976562 166.503906 74.117188 162.917969 C 74.695312 159.917969 77.695312 157.867188 80.0625 156.207031 C 87.476562 150.125 96.359375 145.582031 105.171875 142.324219 C 106.773438 141.488281 108.371094 140.335938 110.101562 139.886719 C 115.84375 137.90625 118.851562 135.730469 124.984375 134.835938 C 126.136719 134.515625 127.476562 135.921875 128.632812 134.835938"/><path fill="#CBCEE3" d="M 265.058594 139.507812 C 266.339844 140.78125 267.746094 142.578125 267.492188 144.433594 C 267.230469 143.730469 266.210938 143.089844 266.597656 142.511719 C 264.292969 141.808594 261.863281 139.382812 259.371094 141.234375 C 257.199219 143.539062 254.707031 146.667969 256.179688 149.804688 C 256.820312 150.699219 257.773438 151.914062 258.671875 152.105469 C 256.558594 153.261719 253.6875 152.621094 251.707031 152.105469 C 249.726562 150 254.066406 139.953125 256.558594 139.3125 C 258.800781 136.5625 262.757812 138.160156 265.058594 139.507812"/><path fill="#A1D59E" d="M 315.992188 155.757812 C 309.214844 159.273438 302.1875 164.714844 294.902344 167.84375 C 290.816406 169.960938 287.875 165.347656 283.210938 163.367188 L 280.714844 160.167969 C 281.996094 159.015625 294.523438 154.03125 295.347656 153.320312 C 293.941406 147.628906 287.617188 144.625 283.210938 141.617188 L 281.738281 141.234375 C 284.421875 140.023438 290.363281 138.226562 293.175781 136.816406 C 295.734375 136.757812 302.0625 139.058594 307.175781 142.644531 C 313.308594 146.988281 318.03125 152.941406 315.992188 155.757812"/><path fill="#FCD562" d="M 317.265625 140.527344 C 320.207031 140.78125 323.660156 141.234375 325.578125 138.671875 C 326.21875 139.566406 328.003906 140.273438 327.296875 141.871094 C 325.765625 143.984375 322.765625 144.8125 320.078125 144.433594 C 317.265625 143.664062 314.265625 141.9375 313.6875 139.121094 C 313.558594 138.488281 313.820312 137.90625 314.328125 137.777344 C 314.773438 139.121094 316.179688 139.886719 317.265625 140.527344"/><path fill="#92B1A0" d="M 370.5 142.957031 C 368.707031 148.785156 364.042969 153.960938 360.148438 158.0625 C 346.34375 166.117188 331.390625 173.535156 316.886719 180.382812 C 318.800781 177.957031 319.1875 174.886719 320.273438 172.128906 C 323.851562 170.085938 328.003906 167.464844 331.964844 166.117188 C 342.765625 160.296875 353.117188 154.28125 363.34375 147.375 C 365.894531 145.132812 368.328125 142.703125 370.949219 140.527344 C 370.5 140.976562 370.949219 142.257812 370.5 142.957031"/><path fill="#85AB94" d="M 234.453125 142.511719 C 238.347656 146.414062 243.847656 147.308594 248.765625 149.359375 C 249.214844 150.125 248.058594 151.214844 247.679688 152.105469 C 233.554688 155.886719 218.476562 157.480469 206.144531 165.472656 C 201.796875 169.960938 195.722656 169.058594 190.359375 170.339844 C 172.972656 173.984375 155.535156 178.847656 139.304688 185.949219 C 131.183594 185.882812 124.023438 183.648438 116.105469 183.132812 C 116.359375 182.621094 117.378906 182.621094 117.957031 182.300781 C 124.730469 178.589844 131.628906 174.304688 138.46875 170.339844 C 147.734375 169.503906 156.429688 167.203125 165.308594 165.347656 C 170.742188 163.367188 176.6875 162.40625 182.246094 160.421875 C 191.699219 157.671875 201.089844 154.921875 209.976562 150.824219 C 218.214844 148.269531 226.277344 144.6875 234.453125 142.511719"/><path fill="#A8BDD4" d="M 281.289062 143.40625 C 285.578125 144.878906 290.175781 147.628906 292.601562 152.105469 C 292.410156 153.515625 290.554688 153.769531 289.410156 154.222656 C 285.828125 155.625 282.636719 157.480469 278.738281 158.0625 L 269.792969 147.183594 C 270.429688 147.503906 270.429688 146.734375 270.683594 146.609375 L 277.078125 142.957031 C 278.542969 143.472656 279.5625 143.089844 281.289062 143.40625"/><path fill="#EFBE98" d="M 313.433594 202.773438 L 313.433594 203.414062 C 297.453125 190.359375 271.324219 165.347656 258.351562 147.628906 C 258.671875 145.714844 259.820312 144.179688 261.546875 143.40625 C 275.476562 151.40625 306.46875 194.964844 313.433594 202.773438"/><path fill="#BEBDD9" d="M 325.765625 149.929688 C 326.660156 152.175781 327.296875 154.730469 327.9375 156.777344 C 326.851562 156.265625 325.960938 157.867188 324.746094 156.972656 C 324.359375 155.496094 327.296875 155.757812 326.21875 154.03125 C 326.152344 153 325.707031 151.660156 325 150.574219 L 324.359375 150.574219 C 324.621094 149.929688 325.320312 150.125 325.765625 149.929688"/><path fill="#7FB0AD" d="M 136.683594 165.796875 C 137.511719 167.84375 136.101562 169.640625 134.25 170.339844 C 127.730469 175.332031 120.316406 178.65625 112.90625 181.726562 C 108.558594 181.792969 104.472656 179.9375 100.320312 179.101562 C 97.1875 178.589844 94.1875 177.375 91.179688 176.546875 C 105.558594 173.03125 118.851562 166.949219 130.738281 157.226562 C 132.910156 155.050781 135.53125 152.621094 137.578125 150.125 C 139.558594 155.050781 138.664062 161.003906 136.683594 165.796875"/><path fill="#FEEB8E" d="M 324.105469 154.03125 C 323.144531 155.117188 321.234375 156.070312 319.632812 156.777344 L 319.058594 156.207031 C 320.273438 154.730469 322.253906 154.601562 323.28125 153.136719 C 323.71875 153.320312 323.914062 153.515625 324.105469 154.03125"/><path fill="#A8BDD4" d="M 261.097656 154.671875 C 263.273438 157.351562 266.085938 159.722656 268.511719 162.277344 C 261.546875 165.863281 253.8125 167.335938 246.785156 170.789062 C 244.671875 166.054688 240.394531 160.550781 235.28125 157.867188 C 239.5 156.457031 244.480469 155.371094 248.894531 154.671875 C 250.105469 153.769531 251.320312 154.921875 252.53125 155.117188 C 255.414062 155.566406 258.226562 154.15625 261.097656 154.671875"/><path fill="#7CAEA6" d="M 62.171875 156.207031 C 63.832031 156.652344 65.363281 157.605469 66.835938 158.507812 C 60.765625 157.097656 53.097656 156.652344 46.898438 158.0625 C 49.644531 156.070312 53.542969 156.710938 56.671875 155.496094 C 58.589844 156.710938 60.191406 154.921875 62.171875 156.207031"/><path fill="#FEEB8E" d="M 317.265625 157.226562 C 311.199219 161.703125 304.234375 167.078125 296.433594 170.339844 C 295.988281 170.59375 295.667969 170.085938 295.347656 169.960938 C 303.148438 166.503906 309.347656 160.421875 317.074219 156.777344 C 317.011719 156.972656 317.207031 157.097656 317.265625 157.226562"/><path fill="#CBCEE3" d="M 16.609375 160.167969 C 15.203125 160.421875 13.667969 160.421875 12.835938 161.703125 L 12.515625 163.171875 C 12.261719 162.152344 11.046875 160.871094 12.066406 159.722656 C 13.09375 158.0625 16.160156 158.382812 16.609375 160.167969"/><path fill="#83B589" d="M 70.667969 162.277344 C 73.542969 165.609375 75.015625 169.503906 74.753906 173.796875 C 61.917969 171.234375 50.539062 165.160156 38.078125 161.511719 C 48.558594 159.527344 61.210938 157.605469 70.667969 162.277344"/><path fill="#A1D59E" d="M 244.226562 170.789062 C 244.546875 172.128906 243.394531 173.535156 245.3125 173.796875 C 253.367188 170.40625 261.351562 166.949219 269.792969 164.453125 C 271.769531 165.667969 283.015625 176.292969 277.203125 177.566406 C 260.777344 185.308594 242.820312 191.324219 224.867188 195.101562 C 222.824219 189.46875 222.503906 182.6875 216.941406 178.277344 C 213.875 173.535156 208.628906 172.195312 204.03125 170.144531 C 210.675781 164.519531 219.75 161.578125 228.507812 159.402344 C 236.308594 157.800781 240.90625 165.414062 244.226562 170.789062"/><path fill="#8CBF90" d="M 318.351562 161.511719 C 317.90625 164.902344 320.011719 166.757812 318.351562 169.960938 C 317.460938 169.640625 317.207031 170.855469 316.441406 171.039062 C 312.21875 172.640625 308 175.585938 303.082031 175.90625 C 301.296875 174.886719 299.949219 173.285156 298.09375 172.128906 C 305.195312 168.230469 310.433594 162.726562 317.71875 159.527344 L 318.351562 161.511719"/><path fill="#A1D59E" d="M 44.917969 165.929688 C 49.257812 168.484375 54.371094 169.445312 58.785156 171.679688 C 61.464844 172.390625 63.957031 173.605469 66.710938 174.246094 C 78.460938 177.828125 124.472656 185.757812 136.363281 189.148438 C 139.875 189.273438 142.691406 192.984375 143.960938 195.925781 C 145.117188 196.121094 146.582031 195.101562 145.6875 193.820312 C 144.601562 191.644531 142.691406 190.234375 140.964844 188.445312 L 141.410156 187.679688 C 157.320312 180.128906 173.746094 176.03125 191.25 172.261719 C 201.410156 170.40625 212.023438 174.304688 217.582031 182.753906 C 219.308594 185.375 220.96875 189.019531 221.035156 191.894531 L 221.414062 192.34375 C 220.96875 193.246094 221.476562 194.585938 221.667969 195.734375 C 218.03125 196.566406 214.0625 197.277344 210.421875 197.277344 C 209.722656 198.296875 208.375 197.722656 207.355469 197.847656 C 205.699219 195.414062 206.078125 191.574219 204.796875 188.699219 C 204.097656 188.253906 195.664062 191.710938 193.679688 191.644531 C 192.726562 193.175781 193.679688 197.65625 193.996094 199.832031 C 180.257812 200.917969 163.519531 202.132812 147.476562 202.648438 C 137.828125 202.96875 128.5625 202.261719 120.386719 203.222656 C 119.550781 201.6875 120.703125 199.898438 121.023438 198.296875 C 121.472656 197.277344 122.433594 195.734375 120.703125 195.101562 C 116.933594 195.101562 113.484375 196.695312 109.90625 194.839844 C 109.140625 195.03125 108.054688 195.414062 108.246094 196.375 C 108.246094 196.886719 108.113281 197.460938 108.691406 197.722656 C 108.753906 199.636719 107.605469 201.046875 107.605469 203.027344 C 97.761719 201.492188 87.921875 199.382812 78.847656 196.636719 C 72.203125 195.480469 66.382812 192.285156 59.996094 190.429688 C 45.746094 184.222656 32.007812 176.292969 19.800781 164.902344 C 19.925781 164.519531 19.480469 164.453125 19.355469 164.261719 C 21.527344 164.453125 23 161.957031 25.621094 162.597656 C 32.453125 161.449219 38.847656 164.648438 44.917969 165.929688"/><path fill="#FCD562" d="M 16.027344 162.726562 C 16.027344 167.648438 14.113281 169.894531 14.882812 175.332031 C 17.820312 186.71875 17.5 210.515625 11.300781 221.261719 C 11.5625 220.621094 10.980469 220.878906 11.242188 220.171875 C 13.476562 213.839844 15.203125 205.71875 15.523438 197.589844 C 15.839844 189.914062 14.242188 180.191406 13.40625 174.496094 C 13.027344 170.144531 15.453125 167.203125 15.269531 162.726562 L 16.027344 162.726562"/><path fill="#FEEB8E" d="M 62.230469 192.730469 C 66.835938 193.878906 64.984375 194.839844 61.210938 194.199219 C 57.183594 192.664062 23 176.800781 17.886719 167.015625 L 18.140625 166.375 C 31.558594 177.695312 45.8125 186.589844 62.230469 192.730469"/><path fill="#E8B793" d="M 304.101562 179.296875 C 312.988281 188.253906 326.597656 195.414062 329.859375 208.339844 C 329.597656 209.039062 328.707031 208.59375 328.199219 208.71875 C 310.8125 199.636719 299.636719 181.792969 286.210938 166.824219 C 292.476562 170.085938 298.09375 175.136719 304.101562 179.296875"/><path fill="#7ABB96" d="M 13.601562 203.027344 C 6.957031 196.695312 3.316406 186.203125 6.574219 177.1875 C 7.273438 174.304688 9.003906 170.980469 11.941406 169.058594 C 11.046875 180.257812 16.289062 192.03125 13.601562 203.027344"/><path fill="#8CBF90" d="M 63.191406 195.734375 C 71.628906 198.871094 99.613281 203.921875 106.773438 208.527344 C 107.347656 208.914062 106.964844 209.683594 106.714844 210.835938 C 106.714844 211.925781 104.851562 213.140625 106.714844 213.839844 C 110.800781 214.414062 114.3125 213.585938 118.277344 215.375 C 121.726562 214.285156 118.339844 210.449219 120.386719 208.214844 C 144.988281 207.1875 169.59375 205.972656 194.132812 204.4375 C 195.597656 206.613281 194.511719 208.71875 195.851562 210.835938 C 198.984375 211.089844 201.410156 208.789062 204.609375 208.71875 C 207.738281 208.078125 205.628906 205.332031 206.523438 203.414062 C 211.703125 202.773438 216.941406 201.6875 222.117188 201.492188 C 222.183594 203.542969 221.347656 205.71875 220.582031 207.632812 C 216.554688 209.039062 212.597656 211.023438 208.25 211.730469 C 206.785156 213.070312 204.609375 212.429688 202.945312 213.265625 C 169.140625 223.117188 125.558594 227.847656 92.269531 224.332031 C 72.777344 222.28125 60.191406 215.566406 42.164062 206.867188 C 34.820312 203.863281 27.726562 198.675781 21.335938 193.429688 C 18.335938 189.789062 19.226562 184.734375 18.140625 179.9375 C 17.308594 177.054688 16.800781 173.535156 17.695312 170.59375 C 31.433594 182.492188 46.957031 189.59375 63.191406 195.734375"/><path fill="#92B1A0" d="M 317.71875 172.449219 C 317.011719 176.480469 315.035156 180.453125 311.582031 182.753906 C 309.535156 180.898438 307.175781 179.742188 305.382812 177.828125 C 309.472656 176.480469 313.433594 173.796875 317.71875 172.449219"/><path fill="#F3D889" d="M 281.929688 176.992188 C 289.855469 184.667969 295.667969 194.140625 302.632812 202.773438 C 304.488281 206.222656 307.175781 208.59375 309.472656 211.535156 C 312.21875 214.859375 315.671875 218.832031 320.078125 220.105469 C 320.914062 219.726562 321.234375 219.085938 321.804688 218.316406 C 322.058594 214.414062 319.121094 211.285156 317.527344 207.894531 C 318.613281 206.417969 317.460938 204.824219 316.886719 203.414062 C 320.078125 206.484375 323.851562 208.273438 327.296875 210.644531 C 328.707031 209.808594 329.984375 212.625 331.140625 210.515625 C 332.605469 208.273438 331.265625 205.269531 329.859375 203.222656 L 328.964844 200.917969 C 332.285156 204.117188 335.738281 206.867188 338.804688 210.515625 C 338.484375 213.140625 335.933594 215.121094 334.332031 217.035156 C 330.304688 221.007812 327.046875 225.039062 322.253906 226.828125 C 321.097656 226.953125 320.777344 225.867188 320.078125 225.417969 C 311.066406 216.207031 301.800781 207.125 294.523438 196.375 C 294.457031 194.964844 293.050781 193.945312 292.15625 193.175781 C 288.128906 187.933594 284.871094 182.492188 281.484375 176.992188 L 281.929688 176.992188"/><path fill="#FEEB8E" d="M 279.824219 178.847656 C 277.96875 180.636719 275.03125 181.597656 272.539062 182.941406 C 265.949219 184.988281 259.691406 187.933594 252.980469 189.789062 C 250.679688 191.070312 248.125 191.644531 245.699219 192.535156 C 243.140625 193.175781 240.648438 193.878906 238.289062 194.839844 C 228.253906 197.527344 218.214844 200.210938 207.355469 200.917969 C 207.289062 200.53125 207.289062 199.578125 207.804688 200.210938 C 233.175781 195.351562 256.878906 187.863281 279.183594 178.65625 C 279.4375 178.65625 279.695312 178.589844 279.824219 178.847656"/><path fill="#818572" d="M 193.105469 183.132812 C 194.257812 184.222656 195.152344 184.476562 195.664062 185.949219 C 196.363281 187.679688 195.40625 188.378906 194.765625 189.789062 C 191.378906 192.789062 186.457031 194.585938 182.246094 193.175781 C 180.132812 192.789062 178.792969 190.875 177.578125 189.148438 C 176.492188 185.375 180.394531 183.132812 182.433594 180.382812 C 184.480469 178.847656 186.90625 179.675781 189.273438 179.742188 C 190.871094 180.578125 192.269531 181.539062 193.105469 183.132812"/><path fill="#FEEB8E" d="M 191 183.386719 C 191.25 184.542969 190.804688 185.695312 189.71875 186.144531 C 188.378906 186.785156 186.332031 186.785156 184.992188 186.144531 C 183.78125 185.242188 183.324219 184.027344 183.519531 182.492188 C 184.925781 181.539062 186.710938 181.023438 188.378906 181.472656 C 189.398438 181.851562 190.230469 182.492188 191 183.386719"/><path fill="#8CBF90" d="M 284.035156 185.695312 C 276.691406 189.148438 268.898438 191.644531 261.546875 195.101562 C 256.5 196.441406 252.027344 198.296875 246.785156 199.832031 C 239.433594 202.96875 231.320312 205.011719 223.523438 206.417969 C 224.160156 204.242188 224.355469 202.835938 224.867188 200.660156 C 233.109375 198.035156 241.925781 196.441406 249.785156 192.984375 C 252.53125 192.925781 254.964844 191.195312 257.265625 190.621094 C 265 187.292969 273.238281 185.242188 280.84375 181.726562 C 282.316406 182.300781 283.335938 184.222656 284.035156 185.695312"/><path fill="#FCD562" d="M 182.246094 187.039062 C 184.03125 188.828125 186.777344 189.019531 189.273438 188.445312 C 191.378906 189.019531 192.40625 184.476562 193.746094 186.785156 C 193.105469 189.980469 189.398438 191.324219 186.527344 191.894531 C 183.839844 191.835938 181.027344 191.195312 179.6875 188.699219 C 179.367188 187.230469 180.132812 185.949219 180.964844 185.054688 C 181.984375 185.054688 181.414062 186.589844 182.246094 187.039062"/><path fill="#92B1A0" d="M 290.429688 194.839844 C 275.03125 200.917969 259.691406 206.933594 243.78125 211.925781 C 235.085938 214.859375 226.207031 217.421875 217.582031 220.425781 L 216.941406 220.238281 C 219.175781 216.910156 221.347656 213.460938 222.503906 209.613281 C 243.265625 203.667969 263.273438 196.121094 283.210938 188.253906 C 283.976562 188.183594 284.871094 188.574219 285.316406 187.863281 C 287.554688 189.59375 288.703125 192.535156 290.429688 194.839844"/><path fill="#E8B793" d="M 315.992188 208.980469 C 317.265625 211.859375 319.507812 214.285156 319.828125 217.484375 C 318.421875 218.316406 317.011719 216.269531 315.605469 215.566406 C 307.746094 208.078125 301.546875 199.316406 295.347656 190.621094 C 302.253906 196.566406 308.835938 203.542969 315.992188 208.980469"/><path fill="#CBCEE3" d="M 204.03125 196.636719 C 201.535156 196.636719 199.304688 192.03125 197.382812 194.839844 C 197.898438 196.441406 198.152344 197.335938 197.964844 199.125 C 197.644531 199.382812 197.257812 199.636719 196.75 199.578125 C 196.296875 197.722656 195.851562 195.867188 195.664062 193.820312 C 197.964844 192.925781 200.390625 192.214844 202.945312 191.894531 C 203.332031 193.5 203.902344 194.839844 204.03125 196.636719"/><path fill="#7ABB96" d="M 59.871094 216.910156 C 66.578125 218.832031 72.714844 222.414062 79.9375 223.4375 C 82.554688 224.523438 86.835938 224.90625 89.074219 225.613281 C 70.222656 225.351562 53.03125 221.835938 35.78125 217.035156 C 33.21875 216.207031 31.113281 213.585938 28.046875 214.285156 C 24.59375 212.371094 21.527344 210.769531 18.335938 208.078125 L 19.546875 194.839844 C 31.625 205.011719 46.066406 210.195312 59.871094 216.910156"/><path fill="#BEBDD9" d="M 204.609375 200.023438 C 204.796875 201.492188 204.351562 203.09375 204.164062 204.242188 C 203.203125 204.371094 202.050781 203.542969 200.964844 203.222656 C 201.992188 203.027344 203.136719 202.132812 203.332031 200.917969 C 202.3125 200.210938 202.175781 197.976562 200.390625 198.742188 L 200.390625 197.015625 C 201.855469 197.78125 203.84375 198.421875 204.609375 200.023438"/><path fill="#CBCEE3" d="M 118.597656 197.460938 L 117.378906 203.222656 C 116.105469 203.28125 115.078125 203.09375 114.183594 202.582031 C 113.804688 201.878906 114.757812 201.621094 114.757812 201.046875 C 114.183594 200.34375 113.933594 199.382812 112.90625 199.125 C 109.964844 199.765625 113.484375 205.011719 109.90625 203.667969 C 111.050781 201.621094 109.964844 198.871094 111.886719 197.460938 C 114.3125 197.460938 116.359375 197.460938 118.597656 197.460938"/><path fill="#FEEB8E" d="M 110.992188 206.222656 C 111.246094 206.292969 111.121094 206.613281 111.121094 206.867188 C 109.394531 207.574219 107.160156 206.417969 105.171875 206.222656 C 96.226562 203.09375 71.5625 198.421875 62.8125 194.78125 C 64.148438 195.101562 64.402344 194.140625 65.75 194.460938 C 75.394531 196.761719 101.214844 203.476562 110.992188 206.222656"/><path fill="#FEEB8E" d="M 114.183594 206.222656 C 116.484375 205.902344 116.738281 204.371094 119.171875 204.371094 C 129.777344 204.371094 143.960938 204.242188 155.34375 203.734375 C 168.054688 203.15625 187.226562 201.433594 198.859375 200.980469 C 200.324219 200.917969 198.984375 202.199219 200.515625 202.132812 L 195.792969 202.582031 C 171.1875 204.882812 138.917969 207.632812 114.183594 206.222656"/><path fill="#CBCEE3" d="M 202.691406 205.972656 C 201.15625 206.484375 199.238281 208.273438 197.324219 208.273438 C 197.449219 206.933594 196.363281 205.777344 197.199219 204.4375 C 199.304688 204.183594 200.710938 205.777344 202.691406 205.972656"/><path fill="#231F20" d="M 344.617188 208.078125 L 344.878906 208.078125 L 344.878906 207.828125 L 344.617188 207.828125 L 344.617188 208.078125"/><path fill="#CBCEE3" d="M 117.191406 208.527344 C 117.640625 209.933594 117.699219 211.285156 117.378906 212.625 C 114.699219 213.011719 111.953125 211.984375 109.265625 211.730469 C 108.5 211.214844 109.265625 210.070312 109.011719 209.429688 C 110.867188 208.789062 110.546875 212.878906 112.90625 211.285156 C 114.253906 210.574219 113.359375 208.914062 114.757812 208.527344 L 117.191406 208.527344"/><path fill="#92B1A0" d="M 212.535156 221.773438 C 196.042969 227.207031 179.6875 232.324219 161.222656 231.363281 C 157.382812 230.859375 153.421875 232.714844 149.335938 231.109375 C 149.140625 229.703125 151.183594 228.363281 149.460938 227.078125 C 149.460938 222.414062 155.59375 225.484375 158.28125 223.628906 C 179.171875 220.425781 199.691406 216.207031 219.5625 210.195312 C 218.667969 214.226562 215.730469 218.636719 212.535156 221.773438"/><path fill="#7FB0AD" d="M 67.730469 225.417969 C 73.667969 227.019531 80.507812 226.632812 86.902344 227.273438 C 87.347656 226.507812 88.046875 227.527344 88.753906 227.273438 C 94.121094 227.972656 98.914062 226.828125 103.960938 227.527344 C 117.890625 226.757812 131.125 232.003906 145.6875 232.90625 C 145.6875 235.015625 144.15625 237.316406 142.304688 238.851562 C 138.851562 237.765625 136.996094 239.8125 133.484375 239.425781 C 120.703125 239.8125 109.839844 235.714844 97.574219 234.761719 C 90.792969 232.773438 84.855469 232.714844 78.140625 230.730469 C 73.667969 229.574219 69.070312 228.808594 64.722656 227.273438 C 59.296875 225.933594 53.796875 224.203125 48.75 222.222656 C 54.496094 223.882812 61.210938 224.972656 67.730469 225.417969"/><path fill="#92B1A0" d="M 147.804688 225.164062 C 148.183594 227.273438 147.289062 228.875 147.027344 230.730469 C 140.964844 231.75 134.957031 229.003906 129.265625 229.003906 C 126.390625 228.363281 123.578125 227.722656 120.703125 227.078125 C 124.34375 227.078125 129.457031 226.1875 133.929688 226.1875 C 135.210938 225.164062 136.617188 226.574219 138.023438 225.804688 C 141.410156 225.417969 144.988281 224.777344 147.804688 225.164062"/><path fill="#85AB94" d="M 169.332031 233.035156 C 161.28125 234.949219 153.867188 237.066406 145.941406 238.597656 L 148.25 233.480469 C 155.722656 233.480469 161.667969 232.773438 169.332031 233.035156"/><path fill="#CFEDCF" d="M 49.199219 174.117188 C 55.902344 174.566406 132.523438 189.078125 136.742188 190.808594 C 140.894531 192.535156 143.324219 198.742188 143.324219 198.742188 C 143.324219 198.742188 149.460938 199.636719 149.460938 196.121094 C 149.460938 192.605469 147.734375 188.632812 151.25 187.292969 C 154.761719 185.949219 181.925781 177.632812 181.925781 177.632812 C 181.925781 177.632812 171.378906 186.398438 174.894531 189.914062 C 178.40625 193.429688 179.304688 194.332031 179.304688 194.332031 C 179.304688 194.332031 152.335938 201.113281 141.46875 200.851562 C 130.609375 200.597656 123.769531 199.765625 123.769531 199.257812 L 124.21875 193.945312 L 106.839844 192.605469 L 103.765625 200.085938 C 103.765625 200.085938 42.550781 173.605469 49.199219 174.117188"/><path fill="#9EDCA6" d="M 86.136719 157.421875 C 91.878906 151.28125 119.996094 139.828125 125.75 139.382812 C 131.4375 138.933594 132.335938 145.96875 116.933594 152.554688 C 101.535156 159.207031 80.441406 163.558594 86.136719 157.421875"/><path fill="#CFEDCF" d="M 194.257812 176.292969 C 199.558594 174.945312 203.96875 173.671875 209.65625 178.460938 C 215.410156 183.328125 213.617188 185.5625 213.617188 185.5625 L 201.285156 186.84375 C 201.285156 186.84375 200.449219 181.597656 198.21875 180.703125 C 196.042969 179.808594 189.019531 177.632812 194.257812 176.292969"/><path fill="#CFEDCF" d="M 215.789062 169.253906 C 216.691406 170.144531 222.882812 172.320312 224.609375 177.632812 C 226.402344 182.878906 240.90625 177.1875 240.460938 174.117188 C 240.015625 170.980469 236.046875 163.171875 229.46875 163.558594 C 222.882812 164.007812 214.964844 168.359375 215.789062 169.253906"/><path fill="#9EDCA6" d="M 157.828125 128.824219 C 153.867188 128.375 138.34375 130.359375 140.257812 137.585938 C 142.109375 144.878906 167.160156 136.757812 176.6875 134.515625 C 186.207031 132.28125 202.496094 124.730469 199.558594 123.964844 C 196.617188 123.257812 165.308594 133.242188 161.792969 132.339844 C 158.28125 131.445312 161.792969 129.269531 157.828125 128.824219"/><g fill="#F8EFED"><g><g><path d="M 22.34375 -9.640625 C 22.34375 -11.078125 21.835938 -12.175781 20.828125 -12.9375 C 19.816406 -13.707031 18 -14.515625 15.375 -15.359375 C 12.75 -16.210938 10.671875 -17.050781 9.140625 -17.875 C 4.960938 -20.125 2.875 -23.160156 2.875 -26.984375 C 2.875 -28.972656 3.429688 -30.742188 4.546875 -32.296875 C 5.671875 -33.859375 7.28125 -35.078125 9.375 -35.953125 C 11.46875 -36.828125 13.820312 -37.265625 16.4375 -37.265625 C 19.0625 -37.265625 21.398438 -36.785156 23.453125 -35.828125 C 25.503906 -34.878906 27.097656 -33.535156 28.234375 -31.796875 C 29.367188 -30.066406 29.9375 -28.101562 29.9375 -25.90625 L 22.375 -25.90625 C 22.375 -27.582031 21.84375 -28.890625 20.78125 -29.828125 C 19.71875 -30.765625 18.226562 -31.234375 16.3125 -31.234375 C 14.457031 -31.234375 13.015625 -30.835938 11.984375 -30.046875 C 10.960938 -29.265625 10.453125 -28.238281 10.453125 -26.96875 C 10.453125 -25.769531 11.050781 -24.765625 12.25 -23.953125 C 13.457031 -23.148438 15.234375 -22.394531 17.578125 -21.6875 C 21.878906 -20.382812 25.015625 -18.773438 26.984375 -16.859375 C 28.953125 -14.941406 29.9375 -12.550781 29.9375 -9.6875 C 29.9375 -6.507812 28.734375 -4.015625 26.328125 -2.203125 C 23.921875 -0.398438 20.679688 0.5 16.609375 0.5 C 13.785156 0.5 11.210938 -0.015625 8.890625 -1.046875 C 6.566406 -2.078125 4.789062 -3.492188 3.5625 -5.296875 C 2.34375 -7.097656 1.734375 -9.1875 1.734375 -11.5625 L 9.34375 -11.5625 C 9.34375 -7.507812 11.765625 -5.484375 16.609375 -5.484375 C 18.410156 -5.484375 19.816406 -5.847656 20.828125 -6.578125 C 21.835938 -7.304688 22.34375 -8.328125 22.34375 -9.640625 Z M 22.34375 -9.640625" transform="translate(15.44 294.717)"/></g></g></g><g fill="#F8EFED"><g><g><path d="M 15.375 0.5 C 11.363281 0.5 8.097656 -0.722656 5.578125 -3.171875 C 3.066406 -5.628906 1.8125 -8.90625 1.8125 -13 L 1.8125 -13.703125 C 1.8125 -16.453125 2.34375 -18.90625 3.40625 -21.0625 C 4.46875 -23.226562 5.96875 -24.894531 7.90625 -26.0625 C 9.851562 -27.238281 12.070312 -27.828125 14.5625 -27.828125 C 18.300781 -27.828125 21.242188 -26.644531 23.390625 -24.28125 C 25.535156 -21.925781 26.609375 -18.585938 26.609375 -14.265625 L 26.609375 -11.28125 L 9.21875 -11.28125 C 9.445312 -9.5 10.15625 -8.066406 11.34375 -6.984375 C 12.53125 -5.910156 14.035156 -5.375 15.859375 -5.375 C 18.660156 -5.375 20.851562 -6.394531 22.4375 -8.4375 L 26.03125 -4.421875 C 24.9375 -2.867188 23.453125 -1.660156 21.578125 -0.796875 C 19.710938 0.0664062 17.644531 0.5 15.375 0.5 Z M 14.546875 -21.90625 C 13.097656 -21.90625 11.921875 -21.414062 11.015625 -20.4375 C 10.117188 -19.46875 9.546875 -18.078125 9.296875 -16.265625 L 19.4375 -16.265625 L 19.4375 -16.84375 C 19.40625 -18.457031 18.96875 -19.703125 18.125 -20.578125 C 17.28125 -21.460938 16.085938 -21.90625 14.546875 -21.90625 Z M 14.546875 -21.90625" transform="translate(47.217 294.717)"/></g></g></g><g fill="#F8EFED"><g><g><path d="M 14.15625 -5.375 C 15.507812 -5.375 16.601562 -5.742188 17.4375 -6.484375 C 18.28125 -7.222656 18.71875 -8.207031 18.75 -9.4375 L 25.59375 -9.4375 C 25.582031 -7.59375 25.078125 -5.898438 24.078125 -4.359375 C 23.085938 -2.816406 21.726562 -1.617188 20 -0.765625 C 18.28125 0.078125 16.375 0.5 14.28125 0.5 C 10.382812 0.5 7.304688 -0.738281 5.046875 -3.21875 C 2.796875 -5.695312 1.671875 -9.125 1.671875 -13.5 L 1.671875 -13.984375 C 1.671875 -18.191406 2.785156 -21.550781 5.015625 -24.0625 C 7.253906 -26.570312 10.328125 -27.828125 14.234375 -27.828125 C 17.648438 -27.828125 20.390625 -26.851562 22.453125 -24.90625 C 24.515625 -22.957031 25.5625 -20.367188 25.59375 -17.140625 L 18.75 -17.140625 C 18.71875 -18.554688 18.28125 -19.703125 17.4375 -20.578125 C 16.601562 -21.460938 15.492188 -21.90625 14.109375 -21.90625 C 12.410156 -21.90625 11.128906 -21.285156 10.265625 -20.046875 C 9.398438 -18.816406 8.96875 -16.8125 8.96875 -14.03125 L 8.96875 -13.28125 C 8.96875 -10.46875 9.394531 -8.445312 10.25 -7.21875 C 11.101562 -5.988281 12.40625 -5.375 14.15625 -5.375 Z M 14.15625 -5.375" transform="translate(75.157 294.717)"/></g></g></g><g fill="#F8EFED"><g><g><path d="M 19.15625 -2.78125 C 17.351562 -0.59375 14.863281 0.5 11.6875 0.5 C 8.757812 0.5 6.523438 -0.335938 4.984375 -2.015625 C 3.441406 -3.703125 2.65625 -6.171875 2.625 -9.421875 L 2.625 -27.3125 L 9.921875 -27.3125 L 9.921875 -9.671875 C 9.921875 -6.828125 11.21875 -5.40625 13.8125 -5.40625 C 16.28125 -5.40625 17.976562 -6.265625 18.90625 -7.984375 L 18.90625 -27.3125 L 26.234375 -27.3125 L 26.234375 0 L 19.359375 0 Z M 19.15625 -2.78125" transform="translate(102.113 294.717)"/></g></g></g><g fill="#F8EFED"><g><g><path d="M 18.15625 -20.46875 C 17.15625 -20.601562 16.28125 -20.671875 15.53125 -20.671875 C 12.769531 -20.671875 10.957031 -19.738281 10.09375 -17.875 L 10.09375 0 L 2.796875 0 L 2.796875 -27.3125 L 9.6875 -27.3125 L 9.890625 -24.0625 C 11.359375 -26.570312 13.390625 -27.828125 15.984375 -27.828125 C 16.785156 -27.828125 17.539062 -27.71875 18.25 -27.5 Z M 18.15625 -20.46875" transform="translate(131.038 294.717)"/></g></g></g><g fill="#F8EFED"><g><g><path d="M 15.375 0.5 C 11.363281 0.5 8.097656 -0.722656 5.578125 -3.171875 C 3.066406 -5.628906 1.8125 -8.90625 1.8125 -13 L 1.8125 -13.703125 C 1.8125 -16.453125 2.34375 -18.90625 3.40625 -21.0625 C 4.46875 -23.226562 5.96875 -24.894531 7.90625 -26.0625 C 9.851562 -27.238281 12.070312 -27.828125 14.5625 -27.828125 C 18.300781 -27.828125 21.242188 -26.644531 23.390625 -24.28125 C 25.535156 -21.925781 26.609375 -18.585938 26.609375 -14.265625 L 26.609375 -11.28125 L 9.21875 -11.28125 C 9.445312 -9.5 10.15625 -8.066406 11.34375 -6.984375 C 12.53125 -5.910156 14.035156 -5.375 15.859375 -5.375 C 18.660156 -5.375 20.851562 -6.394531 22.4375 -8.4375 L 26.03125 -4.421875 C 24.9375 -2.867188 23.453125 -1.660156 21.578125 -0.796875 C 19.710938 0.0664062 17.644531 0.5 15.375 0.5 Z M 14.546875 -21.90625 C 13.097656 -21.90625 11.921875 -21.414062 11.015625 -20.4375 C 10.117188 -19.46875 9.546875 -18.078125 9.296875 -16.265625 L 19.4375 -16.265625 L 19.4375 -16.84375 C 19.40625 -18.457031 18.96875 -19.703125 18.125 -20.578125 C 17.28125 -21.460938 16.085938 -21.90625 14.546875 -21.90625 Z M 14.546875 -21.90625" transform="translate(149.893 294.717)"/></g></g></g><g fill="#F8EFED"><g><g><path d="M 16.890625 -13.453125 L 10.859375 -13.453125 L 10.859375 0 L 3.28125 0 L 3.28125 -36.75 L 16.9375 -36.75 C 21.28125 -36.75 24.628906 -35.78125 26.984375 -33.84375 C 29.335938 -31.914062 30.515625 -29.1875 30.515625 -25.65625 C 30.515625 -23.144531 29.972656 -21.050781 28.890625 -19.375 C 27.804688 -17.695312 26.160156 -16.363281 23.953125 -15.375 L 31.90625 -0.359375 L 31.90625 0 L 23.78125 0 Z M 10.859375 -19.59375 L 16.96875 -19.59375 C 18.863281 -19.59375 20.332031 -20.078125 21.375 -21.046875 C 22.425781 -22.015625 22.953125 -23.347656 22.953125 -25.046875 C 22.953125 -26.773438 22.457031 -28.132812 21.46875 -29.125 C 20.488281 -30.125 18.976562 -30.625 16.9375 -30.625 L 10.859375 -30.625 Z M 10.859375 -19.59375" transform="translate(190.706 294.717)"/></g></g></g><g fill="#F8EFED"><g><g><path d="M 18.625 0 C 18.289062 -0.65625 18.050781 -1.472656 17.90625 -2.453125 C 16.132812 -0.484375 13.832031 0.5 11 0.5 C 8.332031 0.5 6.117188 -0.269531 4.359375 -1.8125 C 2.597656 -3.363281 1.71875 -5.316406 1.71875 -7.671875 C 1.71875 -10.566406 2.789062 -12.785156 4.9375 -14.328125 C 7.082031 -15.878906 10.179688 -16.664062 14.234375 -16.6875 L 17.59375 -16.6875 L 17.59375 -18.25 C 17.59375 -19.507812 17.269531 -20.519531 16.625 -21.28125 C 15.976562 -22.039062 14.957031 -22.421875 13.5625 -22.421875 C 12.332031 -22.421875 11.367188 -22.125 10.671875 -21.53125 C 9.972656 -20.945312 9.625 -20.140625 9.625 -19.109375 L 2.328125 -19.109375 C 2.328125 -20.691406 2.8125 -22.15625 3.78125 -23.5 C 4.757812 -24.84375 6.140625 -25.898438 7.921875 -26.671875 C 9.710938 -27.441406 11.71875 -27.828125 13.9375 -27.828125 C 17.300781 -27.828125 19.972656 -26.976562 21.953125 -25.28125 C 23.929688 -23.59375 24.921875 -21.21875 24.921875 -18.15625 L 24.921875 -6.3125 C 24.929688 -3.71875 25.289062 -1.753906 26 -0.421875 L 26 0 Z M 12.59375 -5.078125 C 13.675781 -5.078125 14.671875 -5.316406 15.578125 -5.796875 C 16.484375 -6.273438 17.15625 -6.914062 17.59375 -7.71875 L 17.59375 -12.421875 L 14.875 -12.421875 C 11.21875 -12.421875 9.269531 -11.160156 9.03125 -8.640625 L 9.015625 -8.203125 C 9.015625 -7.296875 9.332031 -6.546875 9.96875 -5.953125 C 10.613281 -5.367188 11.488281 -5.078125 12.59375 -5.078125 Z M 12.59375 -5.078125" transform="translate(223.694 294.717)"/></g></g></g><g fill="#F8EFED"><g><g><path d="M 4.796875 0 L 4.796875 -21.96875 L 0.734375 -21.96875 L 0.734375 -27.3125 L 4.796875 -27.3125 L 4.796875 -29.640625 C 4.796875 -32.703125 5.675781 -35.078125 7.4375 -36.765625 C 9.195312 -38.460938 11.65625 -39.3125 14.8125 -39.3125 C 15.820312 -39.3125 17.0625 -39.140625 18.53125 -38.796875 L 18.453125 -33.140625 C 17.847656 -33.296875 17.109375 -33.375 16.234375 -33.375 C 13.492188 -33.375 12.125 -32.085938 12.125 -29.515625 L 12.125 -27.3125 L 17.546875 -27.3125 L 17.546875 -21.96875 L 12.125 -21.96875 L 12.125 0 Z M 4.796875 0" transform="translate(251.408 294.717)"/></g></g></g><g fill="#F8EFED"><g><g><path d="M 11.53125 -34.03125 L 11.53125 -27.3125 L 16.203125 -27.3125 L 16.203125 -21.96875 L 11.53125 -21.96875 L 11.53125 -8.328125 C 11.53125 -7.316406 11.722656 -6.59375 12.109375 -6.15625 C 12.503906 -5.71875 13.25 -5.5 14.34375 -5.5 C 15.144531 -5.5 15.859375 -5.5625 16.484375 -5.6875 L 16.484375 -0.15625 C 15.054688 0.28125 13.582031 0.5 12.0625 0.5 C 6.945312 0.5 4.335938 -2.082031 4.234375 -7.25 L 4.234375 -21.96875 L 0.25 -21.96875 L 0.25 -27.3125 L 4.234375 -27.3125 L 4.234375 -34.03125 Z M 11.53125 -34.03125" transform="translate(269.934 294.717)"/></g></g></g><g fill="#F8EFED"><g><g><path d="M 10.5 0 L 3.1875 0 L 3.1875 -27.3125 L 10.5 -27.3125 Z M 2.75 -34.390625 C 2.75 -35.484375 3.113281 -36.378906 3.84375 -37.078125 C 4.582031 -37.785156 5.582031 -38.140625 6.84375 -38.140625 C 8.082031 -38.140625 9.070312 -37.785156 9.8125 -37.078125 C 10.5625 -36.378906 10.9375 -35.484375 10.9375 -34.390625 C 10.9375 -33.273438 10.5625 -32.363281 9.8125 -31.65625 C 9.0625 -30.945312 8.070312 -30.59375 6.84375 -30.59375 C 5.613281 -30.59375 4.625 -30.945312 3.875 -31.65625 C 3.125 -32.363281 2.75 -33.273438 2.75 -34.390625 Z M 2.75 -34.390625" transform="translate(287.4 294.717)"/></g></g></g><g fill="#F8EFED"><g><g><path d="M 9.515625 -27.3125 L 9.75 -24.15625 C 11.695312 -26.601562 14.3125 -27.828125 17.59375 -27.828125 C 20.488281 -27.828125 22.644531 -26.972656 24.0625 -25.265625 C 25.476562 -23.566406 26.203125 -21.023438 26.234375 -17.640625 L 26.234375 0 L 18.9375 0 L 18.9375 -17.46875 C 18.9375 -19.019531 18.597656 -20.144531 17.921875 -20.84375 C 17.253906 -21.539062 16.132812 -21.890625 14.5625 -21.890625 C 12.507812 -21.890625 10.972656 -21.015625 9.953125 -19.265625 L 9.953125 0 L 2.65625 0 L 2.65625 -27.3125 Z M 9.515625 -27.3125" transform="translate(301.105 294.717)"/></g></g></g><g fill="#F8EFED"><g><g><path d="M 1.734375 -13.859375 C 1.734375 -18.046875 2.726562 -21.421875 4.71875 -23.984375 C 6.71875 -26.546875 9.410156 -27.828125 12.796875 -27.828125 C 15.796875 -27.828125 18.128906 -26.796875 19.796875 -24.734375 L 20.09375 -27.3125 L 26.703125 -27.3125 L 26.703125 -0.90625 C 26.703125 1.476562 26.160156 3.554688 25.078125 5.328125 C 23.992188 7.097656 22.46875 8.441406 20.5 9.359375 C 18.53125 10.285156 16.222656 10.75 13.578125 10.75 C 11.578125 10.75 9.625 10.347656 7.71875 9.546875 C 5.820312 8.753906 4.382812 7.726562 3.40625 6.46875 L 6.640625 2.015625 C 8.453125 4.054688 10.65625 5.078125 13.25 5.078125 C 15.1875 5.078125 16.691406 4.554688 17.765625 3.515625 C 18.847656 2.484375 19.390625 1.015625 19.390625 -0.890625 L 19.390625 -2.34375 C 17.703125 -0.445312 15.488281 0.5 12.75 0.5 C 9.46875 0.5 6.8125 -0.78125 4.78125 -3.34375 C 2.75 -5.90625 1.734375 -9.3125 1.734375 -13.5625 Z M 9.03125 -13.328125 C 9.03125 -10.859375 9.523438 -8.921875 10.515625 -7.515625 C 11.515625 -6.109375 12.882812 -5.40625 14.625 -5.40625 C 16.84375 -5.40625 18.429688 -6.238281 19.390625 -7.90625 L 19.390625 -19.390625 C 18.410156 -21.054688 16.835938 -21.890625 14.671875 -21.890625 C 12.921875 -21.890625 11.539062 -21.171875 10.53125 -19.734375 C 9.53125 -18.304688 9.03125 -16.171875 9.03125 -13.328125 Z M 9.03125 -13.328125" transform="translate(330.055 294.717)"/></g></g></g></svg>